<?xml version="1.0" encoding="utf-8"?>
<!-- Generator: Adobe Illustrator 23.0.0, SVG Export Plug-In . SVG Version: 6.00 Build 0)  -->
<svg version="1.1" id="Слой_1" xmlns="http://www.w3.org/2000/svg" xmlns:xlink="http://www.w3.org/1999/xlink" x="0px" y="0px"
	 viewBox="0 0 66 65" style="enable-background:new 0 0 66 65;" xml:space="preserve">
<style type="text/css">
	.st0{fill-rule:evenodd;clip-rule:evenodd;fill:#FF0000;}
	.st1{fill-rule:evenodd;clip-rule:evenodd;}
</style>
<g>
	<g>
		<path class="st0" d="M64,13c-1-3-7.59-11.45-18.5-11.5c0.23,2.32,0.2,2.82,1,4c0,1,0,2,0,3c-1.87-0.66-3.91-1-7-1
			c-1.26,17.4,3.24,27.09,19,30c-1.37,4.19-3.72,5.02-6,8C50.17,45.17,48,44,45,44c0-3,0-4-3-6s-6-1-7.5,0.5
			c-1.65,1.65,1.22,6.86,2.5,7.5c4,2,4-1,8,1c1.34,0.7,1,1,2.5,2.5C46.3,52.96,46,53,42,55c-6,2-13.87,0.61-17.5-2.5
			c-0.5-0.5-1-1-1-1c2.27-5.12,5.37-1.37,9-5C34,45,34,40,33,38c-8-2-9,2-9.5,7.5c-2.5,0.5-2.5,2.5-4,3C16.42,47.42,16,46,14,44
			c-0.71-0.71-0.5-1.5-0.5-2.5c1.1-1.89,4.79-2.03,6.5-3.5c5.45-4.67,8.95-8.72,13.5-14.5c0.5-2.5,0.33-7.33,0-10h-9
			c0,0,1.5-3.5,2-9C20,4,19,4,14.5,5.5C7.62,10.09,3.5,15.5,1,22C0,34,8.43,49.67,16.5,52.5c-0.33,3-0.67,6-1,9c1.33,0,2.67,0,4,0
			l1-5c0.67,0,1.35,0.14,2,0c3.57,3.03,2.69,4.75,3,7c1.03,0.81,1.25,0.37,3,1c0.55-1.52,0.71-1.67,1-4c2.73,0.02,3.83-0.46,6,0
			c0.76,1.08,0.63,1.92,1,4c1.33,0,2.67,0,4,0c0-1.67,0-3.33,0-5c2.21,0.17,3.4-0.2,5,0c2.26,3.57,2.42,2.61,6,3
			c-0.33-3.56-0.41-4-2-6c1.91-3.89,7.44-7.95,11-13C67.16,34.03,66,19,64,13z M8.5,37.5c-2.5-4.5-3.27-7.15-4-14
			c1.5-4.5,5.24-8.55,12-14c1,0,2,0,3,0c-1.78,6.24-5.54,9.53-6,17c5.04-0.6,6.01-4.86,7-9c1.5-1.5,8.5-0.5,9,0s1.5,2.5,0,4
			C22,30,20.22,35.94,8.5,37.5z M43.5,18.5v-6c5.03,1.36,8.63,2.7,10,8c1.33,0,2.67,0,4,0c-0.34-4.65-1.56-7.53-4-10
			c0-0.67,0-1.33,0-2C58.56,10.11,65,18,61,34C42,32,43.5,18.5,43.5,18.5z"/>
	</g>
</g>
<circle class="st1" cx="40" cy="42" r="2"/>
<circle class="st1" cx="29" cy="42" r="2"/>
</svg>
